P3
2 2
255
255
125
125
125
255
125
125
125
255
255
255
255
